<svg width="735" height="656" viewBox="0 0 735 656" fill="none" xmlns="http://www.w3.org/2000/svg">
<path fill-rule="evenodd" clip-rule="evenodd" d="M217 250H249.707V327.778C249.707 352.614 269.942 372.85 294.778 372.85C319.614 372.85 339.85 352.614 339.85 327.778V250H372.557V327.778C372.557 370.67 337.67 405.557 294.778 405.557C251.887 405.557 217 370.67 217 327.778V250Z" fill="#FA896B"/>
<path fill-rule="evenodd" clip-rule="evenodd" d="M330.396 405.557C345.608 398.456 358.405 387.022 367.189 372.85H467.101C476.808 372.85 484.825 364.966 484.825 355.339C484.825 345.713 476.808 337.829 467.101 337.829H421.261C409.559 337.829 398.988 333.234 391.183 325.658L391.167 325.642L391.151 325.627C389.085 323.56 387.251 321.271 385.649 318.762C380.827 311.849 378.094 303.362 378.094 294.235V293.38C378.094 269.524 397.363 250 421.261 250H506.318V282.92H421.261C415.44 282.92 410.587 287.773 410.587 293.594V294.449C410.587 300.27 415.44 305.122 421.261 305.122H467.101C481.846 305.122 495.013 311.468 504.101 321.438C504.495 321.836 504.817 322.224 505.062 322.517L505.062 322.518L505.062 322.518L505.086 322.546C505.362 322.878 505.547 323.096 505.757 323.307L505.864 323.414L505.96 323.532C512.999 332.16 517.318 343.292 517.318 355.339C517.318 383.062 494.824 405.557 467.101 405.557H330.396Z" fill="#49BEFF"/>
</svg>
