<svg xmlns="http://www.w3.org/2000/svg" fill="none" viewBox="251.1 212.18765432098766 1111.3200000000002 251.06172839506172" style="max-height: 500px" width="1111.3200000000002" height="251.06172839506172">
<path fill="white" d="M1043.05 250.939H1075.76V328.717C1075.76 353.553 1095.99 373.789 1120.83 373.789C1145.67 373.789 1165.9 353.553 1165.9 328.717V250.939H1198.61V328.717C1198.61 371.609 1163.72 406.495 1120.83 406.495C1077.94 406.495 1043.05 371.609 1043.05 328.717V250.939Z" clip-rule="evenodd" fill-rule="evenodd"/>
<path fill="white" d="M905.38 252.439H875.674V404.995H905.38V336.413H998.524V404.995H1028.23V252.439H998.524V306.706H905.38V252.439Z" clip-rule="evenodd" fill-rule="evenodd"/>
<path fill="white" d="M787.021 252.439C744.958 252.439 710.743 286.654 710.743 328.717C710.743 370.78 744.958 404.995 787.021 404.995H859.3V375.289H787.021C761.357 375.289 740.45 354.381 740.45 328.717C740.45 303.052 761.357 282.145 787.021 282.145H859.3V252.439H787.021Z" clip-rule="evenodd" fill-rule="evenodd"/>
<path fill="white" d="M506.024 252.439C463.961 252.439 429.746 286.654 429.746 328.717C429.746 370.78 463.961 404.995 506.024 404.995C548.088 404.995 582.303 370.78 582.303 328.717C582.303 286.654 548.088 252.439 506.024 252.439ZM459.453 328.717C459.453 303.052 480.36 282.145 506.024 282.145C531.689 282.145 552.596 303.052 552.596 328.717C552.596 354.381 531.689 375.289 506.024 375.289C480.36 375.289 459.453 354.381 459.453 328.717Z" clip-rule="evenodd" fill-rule="evenodd"/>
<path fill="white" d="M352.278 252.439C310.215 252.439 276 286.654 276 328.717C276 370.78 310.215 404.995 352.278 404.995H424.557V375.289H352.278C326.614 375.289 305.707 354.381 305.707 328.717C305.707 303.052 326.614 282.145 352.278 282.145H424.557V252.439H352.278Z" clip-rule="evenodd" fill-rule="evenodd"/>
<path fill="white" d="M712.122 375.837L648 250L583.878 375.837L569.047 404.804H602.417L648 315.534L665.263 349.383L644.318 349.432L629.18 379.171L661.724 379.095L661.725 379.095L680.406 379.068L693.583 404.804H726.953L712.122 375.837Z" clip-rule="evenodd" fill-rule="evenodd"/>
<path fill="white" d="M1156.45 406.495C1171.66 399.395 1184.46 387.961 1193.24 373.789H1293.15C1302.86 373.789 1310.88 365.904 1310.88 356.278C1310.88 346.652 1302.86 338.767 1293.15 338.767H1247.31C1235.61 338.767 1225.04 334.172 1217.24 326.597L1217.22 326.581L1217.2 326.565C1215.14 324.499 1213.3 322.209 1211.7 319.701C1206.88 312.788 1204.15 304.301 1204.15 295.173V294.319C1204.15 270.463 1223.42 250.939 1247.31 250.939H1332.37V283.859H1247.31C1241.49 283.859 1236.64 288.712 1236.64 294.533V295.387C1236.64 301.208 1241.49 306.061 1247.31 306.061H1293.15C1307.9 306.061 1321.07 312.406 1330.15 322.376C1330.55 322.775 1330.87 323.163 1331.11 323.456L1331.11 323.456L1331.12 323.457L1331.14 323.485C1331.41 323.816 1331.6 324.035 1331.81 324.245L1331.92 324.353L1332.01 324.47C1339.05 333.098 1343.37 344.23 1343.37 356.278C1343.37 384 1320.88 406.495 1293.15 406.495H1156.45Z" clip-rule="evenodd" fill-rule="evenodd"/>
</svg>